<?xml version="1.0" encoding="UTF-8" standalone="no"?>
<!-- Created with Inkscape (http://www.inkscape.org/) -->

<svg
   xmlns:dc="http://purl.org/dc/elements/1.1/"
   xmlns:cc="http://creativecommons.org/ns#"
   xmlns:rdf="http://www.w3.org/1999/02/22-rdf-syntax-ns#"
   xmlns:svg="http://www.w3.org/2000/svg"
   xmlns="http://www.w3.org/2000/svg"
   xmlns:xlink="http://www.w3.org/1999/xlink"
   xmlns:sodipodi="http://sodipodi.sourceforge.net/DTD/sodipodi-0.dtd"
   xmlns:inkscape="http://www.inkscape.org/namespaces/inkscape"
   version="1.1"
   width="800"
   height="75"
   id="svg2"
   inkscape:version="0.48.3.1 r9886"
   sodipodi:docname="logo_debian_joy.svg"
   enable-background="new">
  <sodipodi:namedview
     pagecolor="#ffffff"
     bordercolor="#666666"
     borderopacity="1"
     objecttolerance="10"
     gridtolerance="10"
     guidetolerance="10"
     inkscape:pageopacity="0"
     inkscape:pageshadow="2"
     inkscape:window-width="1117"
     inkscape:window-height="745"
     id="namedview36"
     showgrid="false"
     inkscape:zoom="4.695189"
     inkscape:cx="814.39611"
     inkscape:cy="28.077849"
     inkscape:window-x="740"
     inkscape:window-y="90"
     inkscape:window-maximized="0"
     inkscape:current-layer="svg2" />
  <defs
     id="defs4">
    <linearGradient
       id="linearGradient3755">
      <stop
         id="stop3757"
         style="stop-color:#8f9db3;stop-opacity:1"
         offset="0" />
      <stop
         id="stop3759"
         style="stop-color:#161b2b;stop-opacity:1"
         offset="1" />
    </linearGradient>
    <radialGradient
       cx="188.32169"
       cy="-60.857712"
       r="960"
       fx="188.32169"
       fy="-60.857712"
       id="radialGradient3765"
       xlink:href="#linearGradient3755"
       gradientUnits="userSpaceOnUse"
       gradientTransform="matrix(1.2448906,0,0,0.8766271,-235.09492,1068.2117)" />
    <filter
       inkscape:collect="always"
       id="filter3141">
      <feBlend
         inkscape:collect="always"
         mode="darken"
         in2="BackgroundImage"
         id="feBlend3143" />
    </filter>
    <filter
       inkscape:collect="always"
       id="filter3145">
      <feBlend
         inkscape:collect="always"
         mode="lighten"
         in2="BackgroundImage"
         id="feBlend3147" />
    </filter>
  </defs>
  <metadata
     id="metadata7">
    <rdf:RDF>
      <cc:Work
         rdf:about="">
        <dc:format>image/svg+xml</dc:format>
        <dc:type
           rdf:resource="http://purl.org/dc/dcmitype/StillImage" />
        <dc:title />
      </cc:Work>
    </rdf:RDF>
  </metadata>
  <g
     transform="translate(0.60240964,-976.15736)"
     id="layer1"
     style="fill:#000000">
    <rect
       width="800"
       height="75"
       x="0"
       y="977.36218"
       id="rect2985"
       style="fill:#000000;fill-opacity:1;stroke:none" />
    <g
       transform="matrix(0.55599379,0,0,0.55599379,740.90301,984.71369)"
       id="g3966"
       style="fill:#000000;fill-opacity:1;overflow:visible">
      <g
         id="Layer_1-9"
         style="fill:#000000;fill-opacity:1">
        <g
           id="g3936"
           style="fill:#000000;fill-opacity:1">
          <path
             d="m 51.986,57.297 c -1.797,0.025 0.34,0.926 2.686,1.287 0.648,-0.506 1.236,-1.018 1.76,-1.516 -1.461,0.358 -2.948,0.366 -4.446,0.229"
             id="path3938-8"
             style="fill:#000000;fill-opacity:1"
             inkscape:connector-curvature="0" />
          <path
             d="m 61.631,54.893 c 1.07,-1.477 1.85,-3.094 2.125,-4.766 -0.24,1.192 -0.887,2.221 -1.496,3.307 -3.359,2.115 -0.316,-1.256 -0.002,-2.537 -3.612,4.546 -0.496,2.726 -0.627,3.996"
             id="path3940-0"
             style="fill:#000000;fill-opacity:1"
             inkscape:connector-curvature="0" />
          <path
             d="m 65.191,45.629 c 0.217,-3.236 -0.637,-2.213 -0.924,-0.978 0.335,0.174 0.6,2.281 0.924,0.978"
             id="path3942"
             style="fill:#000000;fill-opacity:1"
             inkscape:connector-curvature="0" />
          <path
             d="m 45.172,1.399 c 0.959,0.172 2.072,0.304 1.916,0.533 1.049,-0.23 1.287,-0.442 -1.916,-0.533"
             id="path3944"
             style="fill:#000000;fill-opacity:1"
             inkscape:connector-curvature="0" />
          <path
             d="M 47.088,1.932 46.41,2.072 47.041,2.016 47.088,1.932"
             id="path3946"
             style="fill:#000000;fill-opacity:1"
             inkscape:connector-curvature="0" />
          <path
             d="m 76.992,46.856 c 0.107,2.906 -0.85,4.316 -1.713,6.812 l -1.553,0.776 c -1.271,2.468 0.123,1.567 -0.787,3.53 -1.984,1.764 -6.021,5.52 -7.313,5.863 -0.943,-0.021 0.639,-1.113 0.846,-1.541 -2.656,1.824 -2.131,2.738 -6.193,3.846 L 60.16,65.878 C 50.142,70.591 36.226,61.251 36.409,48.507 c -0.107,0.809 -0.304,0.607 -0.526,0.934 -0.517,-6.557 3.028,-13.143 9.007,-15.832 5.848,-2.895 12.704,-1.707 16.893,2.197 -2.301,-3.014 -6.881,-6.209 -12.309,-5.91 -5.317,0.084 -10.291,3.463 -11.951,7.131 -2.724,1.715 -3.04,6.611 -4.227,7.507 -1.597,11.737 3.004,16.808 10.787,22.773 1.225,0.826 0.345,0.951 0.511,1.58 -2.586,-1.211 -4.954,-3.039 -6.901,-5.277 1.033,1.512 2.148,2.982 3.589,4.137 -2.438,-0.826 -5.695,-5.908 -6.646,-6.115 4.203,7.525 17.052,13.197 23.78,10.383 -3.113,0.115 -7.068,0.064 -10.566,-1.229 -1.469,-0.756 -3.467,-2.322 -3.11,-2.615 9.182,3.43 18.667,2.598 26.612,-3.771 2.021,-1.574 4.229,-4.252 4.867,-4.289 -0.961,1.445 0.164,0.695 -0.574,1.971 2.014,-3.248 -0.875,-1.322 2.082,-5.609 l 1.092,1.504 c -0.406,-2.696 3.348,-5.97 2.967,-10.234 0.861,-1.304 0.961,1.403 0.047,4.403 1.268,-3.328 0.334,-3.863 0.66,-6.609 0.352,0.923 0.814,1.904 1.051,2.878 -0.826,-3.216 0.848,-5.416 1.262,-7.285 -0.408,-0.181 -1.275,1.422 -1.473,-2.377 0.029,-1.65 0.459,-0.865 0.625,-1.271 -0.324,-0.186 -1.174,-1.451 -1.691,-3.877 0.375,-0.57 1.002,1.478 1.512,1.562 -0.328,-1.929 -0.893,-3.4 -0.916,-4.88 -1.49,-3.114 -0.527,0.415 -1.736,-1.337 -1.586,-4.947 1.316,-1.148 1.512,-3.396 2.404,3.483 3.775,8.881 4.404,11.117 -0.48,-2.726 -1.256,-5.367 -2.203,-7.922 0.73,0.307 -1.176,-5.609 0.949,-1.691 C 83.519,18.706 76.074,10.902 69.225,7.24 70.063,8.007 71.121,8.97 70.741,9.121 67.335,7.093 67.934,6.935 67.446,6.078 64.671,4.949 64.489,6.169 62.651,6.08 57.421,3.306 56.413,3.601 51.6,1.863 l 0.219,1.023 c -3.465,-1.154 -4.037,0.438 -7.782,0.004 -0.228,-0.178 1.2,-0.644 2.375,-0.815 -3.35,0.442 -3.193,-0.66 -6.471,0.122 0.808,-0.567 1.662,-0.942 2.524,-1.424 -2.732,0.166 -6.522,1.59 -5.352,0.295 -4.456,1.988 -12.37,4.779 -16.811,8.943 l -0.14,-0.933 c -2.035,2.443 -8.874,7.296 -9.419,10.46 l -0.544,0.127 c -1.059,1.793 -1.744,3.825 -2.584,5.67 -1.385,2.36 -2.03,0.908 -1.833,1.278 -2.724,5.523 -4.077,10.164 -5.246,13.97 0.833,1.245 0.02,7.495 0.335,12.497 -1.368,24.704 17.338,48.69 37.785,54.228 2.997,1.072 7.454,1.031 11.245,1.141 -4.473,-1.279 -5.051,-0.678 -9.408,-2.197 -3.143,-1.48 -3.832,-3.17 -6.058,-5.102 l 0.881,1.557 c -4.366,-1.545 -2.539,-1.912 -6.091,-3.037 l 0.941,-1.229 C 28.751,98.334 26.418,96.056 25.78,94.795 l -1.548,0.061 c -1.86,-2.295 -2.851,-3.949 -2.779,-5.23 l -0.5,0.891 c -0.567,-0.973 -6.843,-8.607 -3.587,-6.83 -0.605,-0.553 -1.409,-0.9 -2.281,-2.484 l 0.663,-0.758 c -1.567,-2.016 -2.884,-4.6 -2.784,-5.461 0.836,1.129 1.416,1.34 1.99,1.533 -3.957,-9.818 -4.179,-0.541 -7.176,-9.994 L 8.412,66.472 C 7.926,65.74 7.631,64.945 7.24,64.165 l 0.276,-2.75 C 4.667,58.121 6.719,47.409 7.13,41.534 7.415,39.145 9.508,36.602 11.1,32.614 l -0.97,-0.167 c 1.854,-3.234 10.586,-12.988 14.63,-12.486 1.959,-2.461 -0.389,-0.009 -0.772,-0.629 4.303,-4.453 5.656,-3.146 8.56,-3.947 3.132,-1.859 -2.688,0.725 -1.203,-0.709 5.414,-1.383 3.837,-3.144 10.9,-3.846 0.745,0.424 -1.729,0.655 -2.35,1.205 4.511,-2.207 14.275,-1.705 20.617,1.225 7.359,3.439 15.627,13.605 15.953,23.17 l 0.371,0.1 c -0.188,3.802 0.582,8.199 -0.752,12.238 l 0.908,-1.912"
             id="path3948"
             style="fill:#000000;fill-opacity:1"
             inkscape:connector-curvature="0" />
          <path
             d="m 32.372,59.764 -0.252,1.26 c 1.181,1.604 2.118,3.342 3.626,4.596 -1.085,-2.118 -1.891,-2.993 -3.374,-5.856"
             id="path3950"
             style="fill:#000000;fill-opacity:1"
             inkscape:connector-curvature="0" />
          <path
             d="m 35.164,59.654 c -0.625,-0.691 -0.995,-1.523 -1.409,-2.352 0.396,1.457 1.207,2.709 1.962,3.982 l -0.553,-1.63"
             id="path3952"
             style="fill:#000000;fill-opacity:1"
             inkscape:connector-curvature="0" />
          <path
             d="m 84.568,48.916 -0.264,0.662 c -0.484,3.438 -1.529,6.84 -3.131,9.994 1.77,-3.328 2.915,-6.968 3.395,-10.656"
             id="path3954"
             style="fill:#000000;fill-opacity:1"
             inkscape:connector-curvature="0" />
          <path
             d="M 45.527,0.537 C 46.742,0.092 48.514,0.293 49.803,0 48.123,0.141 46.451,0.225 44.8,0.438 l 0.727,0.099"
             id="path3956"
             style="fill:#000000;fill-opacity:1"
             inkscape:connector-curvature="0" />
          <path
             d="m 2.872,23.219 c 0.28,2.592 -1.95,3.598 0.494,1.889 1.31,-2.951 -0.512,-0.815 -0.494,-1.889"
             id="path3958"
             style="fill:#000000;fill-opacity:1"
             inkscape:connector-curvature="0" />
          <path
             d="M 0,35.215 C 0.563,33.487 0.665,32.449 0.88,31.449 -0.676,33.438 0.164,33.862 0,35.215"
             id="path3960"
             style="fill:#000000;fill-opacity:1"
             inkscape:connector-curvature="0" />
        </g>
      </g>
    </g>
  </g>
  <g
     transform="translate(0,-1005)"
     id="layer3" />
  <g
     inkscape:groupmode="layer"
     id="layer2"
     inkscape:label="Background"
     style="opacity:1;" />
  <g
     inkscape:groupmode="layer"
     id="layer5"
     inkscape:label="Swirl"
     style="filter:url(#filter3145);opacity:0.43333333" />
  <g
     inkscape:groupmode="layer"
     id="layer4"
     inkscape:label="Star"
     style="filter:url(#filter3141);opacity:0" />
  <path
     style="fill:#ffffff;fill-opacity:1"
     d="m 766.60898,55.379215 c -2.75796,-2.611326 -5.10621,-4.747874 -5.21834,-4.747874 -0.11214,0 -1.22059,0.904135 -2.46326,2.009207 -1.24266,1.105073 -3.52127,3.132927 -5.06356,4.506366 -1.54228,1.373438 -2.917,2.555213 -3.05494,2.626172 -0.23493,0.120818 -0.24584,0.08608 -0.1723,-0.548984 0.0432,-0.37289 0.3636,-3.488248 0.71207,-6.923021 0.52905,-5.214809 0.60338,-6.26272 0.45052,-6.352313 -0.2301,-0.134856 -1.44577,-0.337765 -7.25834,-1.211355 -4.83037,-0.725971 -6.63116,-1.026215 -6.73272,-1.122514 -0.0896,-0.08494 0.71993,-0.617689 5.08448,-3.346302 5.37053,-3.35756 6.68806,-4.22915 6.73356,-4.45455 0.0212,-0.104935 -1.49535,-2.809257 -3.37007,-6.009626 -1.87471,-3.20037 -3.40856,-5.893701 -3.40856,-5.985165 0,-0.237736 0.10392,-0.207915 5.94212,1.704822 4.46277,1.46211 7.50811,2.43268 7.64941,2.437913 0.0691,0.0028 0.50196,-1.019621 2.49313,-5.887178 2.22648,-5.442775 2.86315,-6.901694 3.01192,-6.901694 0.15398,0 0.5783,1.064701 2.67487,6.711732 1.04729,2.820828 2.01513,5.375517 2.15073,5.677093 0.23531,0.523247 0.26628,0.544191 0.67795,0.458442 0.23727,-0.04949 2.98641,-0.843428 6.10923,-1.764452 6.20459,-1.829965 7.0319,-2.052741 7.16257,-1.928818 0.0947,0.08976 -0.78036,1.533693 -4.65677,7.684557 -1.38128,2.191725 -2.49422,4.069649 -2.4732,4.173166 0.0493,0.242742 0.61023,0.639952 5.91231,4.186666 4.88343,3.266678 5.73754,3.87644 5.56857,3.975476 -0.18214,0.106779 -1.43851,0.275513 -7.68554,1.032298 -3.2207,0.390163 -6.00035,0.761508 -6.177,0.825206 -0.30637,0.110467 -0.31786,0.155348 -0.24906,0.973308 0.0878,1.043188 0.68734,9.547052 0.81275,11.526622 0.0516,0.814854 0.0393,1.424233 -0.0289,1.423666 -0.0655,-5.11e-4 -2.37566,-2.137541 -5.13363,-4.748866 l 0,0 z"
     id="path2989"
     inkscape:connector-curvature="0" />
  <path
     style="fill:#000000;fill-opacity:1"
     d="m 765.83,53.654637 c -2.4135,-2.298883 -4.46849,-4.179785 -4.5666,-4.179785 -0.098,0 -1.06817,0.79596 -2.15562,1.768803 -1.08749,0.972843 -3.08151,2.758071 -4.43116,3.967174 -1.34968,1.209104 -2.55271,2.249475 -2.67343,2.311942 -0.20559,0.106389 -0.21514,0.07583 -0.15079,-0.483291 0.0379,-0.328274 0.3182,-3.070876 0.62315,-6.094669 0.46298,-4.590849 0.52801,-5.513386 0.39424,-5.592259 -0.20135,-0.118734 -1.2652,-0.29734 -6.35183,-1.066404 -4.2271,-0.639117 -5.80299,-0.90343 -5.89184,-0.988214 -0.0784,-0.07475 0.63001,-0.54377 4.44945,-2.945905 4.6998,-2.955824 5.85279,-3.723131 5.8926,-3.921554 0.0186,-0.09237 -1.30858,-2.473129 -2.94917,-5.290569 -1.64059,-2.81744 -2.98287,-5.188505 -2.98287,-5.269033 0,-0.209288 0.091,-0.183038 5.19999,1.500838 3.90543,1.287166 6.57042,2.141607 6.69409,2.146218 0.0604,0.0022 0.43925,-0.897625 2.18175,-5.182772 1.94841,-4.791539 2.50558,-6.075891 2.63576,-6.075891 0.13467,0 0.50607,0.937299 2.34082,5.908665 0.91649,2.483311 1.76344,4.732325 1.8821,4.997809 0.20594,0.460646 0.23304,0.479087 0.5933,0.403594 0.20762,-0.04349 2.61342,-0.742506 5.34624,-1.553333 5.42969,-1.611 6.15367,-1.807128 6.26803,-1.698025 0.0829,0.07902 -0.68289,1.350178 -4.0752,6.765084 -1.20876,1.929483 -2.1827,3.58271 -2.1643,3.673843 0.0432,0.213689 0.53402,0.563378 5.17391,3.685722 4.27353,2.875809 5.02098,3.412618 4.87309,3.499807 -0.15937,0.09398 -1.25884,0.242544 -6.72567,0.908776 -2.81847,0.343485 -5.25095,0.670393 -5.40555,0.726468 -0.26811,0.09724 -0.27816,0.13676 -0.21795,0.856849 0.0769,0.918373 0.60149,8.404728 0.71123,10.147446 0.0452,0.717362 0.0342,1.253822 -0.0252,1.253324 -0.0574,-4.47e-4 -2.07896,-1.881777 -4.49249,-4.180658 l 0,0 z"
     id="path2987"
     inkscape:connector-curvature="0" />
</svg>
